<svg width="107" height="64" viewBox="0 0 107 64" fill="none" xmlns="http://www.w3.org/2000/svg">
<g clip-path="url(#clip0_147_971)">
<path d="M30.6026 23.3273C30.6026 24.619 30.7426 25.6661 30.9868 26.4341C31.2968 27.298 31.67 28.138 32.1035 28.9471C32.2781 29.2263 32.3476 29.5054 32.3476 29.75C32.3476 30.0988 32.1385 30.448 31.6847 30.7971L29.4859 32.263C29.1717 32.4726 28.8575 32.5772 28.5779 32.5772C28.2292 32.5772 27.88 32.4026 27.5308 32.0884C27.0601 31.5834 26.6394 31.034 26.2745 30.448C25.9254 29.855 25.5762 29.1913 25.1924 28.3887C22.4695 31.5997 19.0489 33.2053 14.9304 33.2056C11.9986 33.2056 9.65982 32.3676 7.94935 30.6926C6.23929 29.0167 5.36676 26.7829 5.36676 23.9907C5.36676 21.0239 6.41388 18.6155 8.54311 16.8004C10.6719 14.9854 13.4995 14.0779 17.0946 14.0779C18.2814 14.0779 19.5031 14.1824 20.7943 14.357C22.0861 14.5316 23.4123 14.8108 24.8086 15.125V12.577C24.8086 9.92397 24.2499 8.07432 23.1678 6.99221C22.0511 5.91009 20.166 5.38632 17.4784 5.38632C16.2567 5.38632 15.0004 5.52632 13.7087 5.8405C12.417 6.15468 11.1607 6.53844 9.939 7.02721C9.38064 7.27138 8.96188 7.41097 8.71729 7.48097C8.4727 7.55097 8.29853 7.58556 8.15894 7.58556C7.67017 7.58556 7.426 7.23638 7.426 6.50344V4.79297C7.426 4.23462 7.496 3.81585 7.67017 3.57168C7.84476 3.32709 8.15894 3.08291 8.6477 2.83874C9.86927 2.21011 11.3352 1.68648 13.0453 1.26785C14.7562 0.814089 16.5713 0.604912 18.4909 0.604912C22.6448 0.604912 25.6816 1.54703 27.6362 3.43209C29.5559 5.31674 30.5334 8.17891 30.5334 12.0186V23.3273H30.6026ZM16.4313 28.6329C17.5834 28.6329 18.7701 28.4237 20.0264 28.0046C21.2831 27.5858 22.4002 26.8179 23.3424 25.7707C23.9011 25.1078 24.3199 24.3749 24.5291 23.5369C24.7386 22.6994 24.8782 21.6869 24.8782 20.5001V19.0343C23.8197 18.7768 22.7476 18.5787 21.6669 18.4409C20.5787 18.3028 19.4829 18.2328 18.3859 18.2313C16.0471 18.2313 14.3371 18.6851 13.1853 19.6276C12.0336 20.5701 11.4749 21.8964 11.4749 23.6415C11.4749 25.282 11.8936 26.5037 12.7662 27.3416C13.6041 28.2141 14.8258 28.6329 16.4313 28.6329ZM44.4597 32.4026C43.8314 32.4026 43.4126 32.298 43.1334 32.0534C42.8542 31.8443 42.6096 31.3555 42.4005 30.6926L34.1981 3.71126C33.9881 3.01291 33.8835 2.55915 33.8835 2.31497C33.8835 1.75662 34.1627 1.44203 34.7215 1.44203H38.142C38.8049 1.44203 39.2591 1.54703 39.5033 1.79121C39.7825 2.00079 39.9921 2.48956 40.2012 3.1525L46.0652 26.2595L51.5104 3.1525C51.6849 2.45456 51.8945 2.00079 52.1733 1.79121C52.4529 1.58203 52.9416 1.44244 53.57 1.44244H56.3622C57.0251 1.44244 57.4793 1.54703 57.7581 1.79121C58.0377 2.00079 58.2818 2.48956 58.4214 3.1525L63.9366 26.5387L69.9747 3.1525C70.1839 2.45456 70.4285 2.00079 70.6727 1.79121C70.9518 1.58203 71.4056 1.44244 72.0339 1.44244H75.2799C75.8386 1.44244 76.1528 1.72162 76.1528 2.31497C76.1528 2.48956 76.1178 2.66415 76.0828 2.87332C76.0478 3.0825 75.9782 3.36209 75.8387 3.74626L67.4263 30.7271C67.2171 31.4255 66.9728 31.8793 66.6934 32.0884C66.4142 32.298 65.9604 32.4376 65.3675 32.4376H62.3657C61.7024 32.4376 61.2486 32.333 60.969 32.0884C60.6898 31.8443 60.4457 31.3905 60.3061 30.6926L54.8955 8.17891L49.5203 30.6571C49.3461 31.3555 49.1365 31.8093 48.8573 32.0534C48.5782 32.298 48.0894 32.4026 47.4615 32.4026H44.4597ZM89.312 33.3451C87.4969 33.3451 85.6819 33.1356 83.9368 32.7168C82.1914 32.298 80.8305 31.8439 79.9229 31.3209C79.3642 31.0063 78.98 30.6576 78.8408 30.3434C78.7051 30.0352 78.6338 29.7026 78.6312 29.3659V27.5858C78.6312 26.8529 78.9104 26.5037 79.4342 26.5037C79.6479 26.5045 79.8601 26.5399 80.0625 26.6087C80.2717 26.6787 80.5859 26.8179 80.9351 26.9574C82.1678 27.5 83.4548 27.9096 84.7744 28.1791C86.1416 28.4564 87.5331 28.5966 88.9282 28.5979C91.1271 28.5979 92.8375 28.2141 94.0242 27.4462C95.2109 26.6783 95.8393 25.5616 95.8393 24.1303C95.8393 23.1531 95.5251 22.3502 94.8968 21.6869C94.2684 21.0235 93.0817 20.4306 91.3717 19.8718L86.3102 18.3013C83.7622 17.4984 81.8776 16.3117 80.7255 14.7408C79.5738 13.2049 78.9804 11.4949 78.9804 9.67979C78.9804 8.21391 79.2946 6.92234 79.9229 5.80509C80.5509 4.68838 81.3888 3.71126 82.4359 2.94332C83.4831 2.14038 84.6698 1.54703 86.0661 1.12827C87.4619 0.7095 88.9278 0.534912 90.4637 0.534912C91.2317 0.534912 92.0346 0.569912 92.8025 0.6745C93.6055 0.779089 94.3384 0.918677 95.0714 1.05826C95.7693 1.23285 96.4327 1.40744 97.061 1.61703C97.6891 1.82621 98.1777 2.03552 98.5269 2.24497C99.0156 2.52456 99.3644 2.80374 99.574 3.11791C99.7835 3.39709 99.8882 3.78099 99.8882 4.26962V5.91009C99.8882 6.64303 99.609 7.02721 99.0852 7.02721C98.8061 7.02721 98.3523 6.88721 97.7594 6.60803C95.7692 5.7005 93.5352 5.24674 91.0575 5.24674C89.0678 5.24674 87.4969 5.56091 86.4148 6.22427C85.3331 6.88721 84.7744 7.89974 84.7744 9.33062C84.7744 10.3081 85.1235 11.1457 85.8215 11.809C86.5194 12.4724 87.8111 13.1353 89.6612 13.7287L94.6176 15.2996C97.1306 16.1025 98.9457 17.2192 100.028 18.6501C101.11 20.081 101.634 21.7219 101.634 23.5369C101.634 25.0378 101.319 26.3991 100.726 27.5858C100.098 28.7725 99.2598 29.8196 98.1777 30.6576C97.0956 31.5301 95.8043 32.1584 94.3034 32.6122C92.7325 33.101 91.0921 33.3451 89.312 33.3451Z" fill="#252F3E"/>
<path d="M95.9089 50.3087C84.4256 58.7906 67.7409 63.2933 53.3954 63.2933C33.2902 63.2933 15.175 55.8584 1.49247 43.5022C0.410353 42.5251 1.38747 41.1988 2.67877 41.9663C17.4784 50.5533 35.7336 55.7539 54.6171 55.7539C67.3571 55.7539 81.3538 53.1013 94.2338 47.6561C96.1535 46.7832 97.794 48.9128 95.9089 50.3087ZM100.691 44.8635C99.2253 42.9789 90.9875 43.956 87.2528 44.4097C86.1357 44.5497 85.9611 43.5722 86.9736 42.8393C93.5355 38.2316 104.321 39.5583 105.578 41.0938C106.834 42.6647 105.228 53.45 99.0853 58.616C98.1431 59.419 97.2356 59.0002 97.6544 57.9531C99.0503 54.4972 102.157 46.7136 100.691 44.8635Z" fill="#FF9900"/>
</g>
<defs>
<clipPath id="clip0_147_971">
<rect width="105.412" height="63" fill="white" transform="translate(0.794113 0.5)"/>
</clipPath>
</defs>
</svg>
