<svg width="69" height="68" viewBox="0 0 69 68" fill="none" xmlns="http://www.w3.org/2000/svg">
<path fill-rule="evenodd" clip-rule="evenodd" d="M46.8563 53.1988C46.9461 53.0261 47.0322 52.8736 47.1055 52.7159C47.1517 52.6149 47.2229 52.5947 47.3233 52.5974C47.9252 52.6144 48.5271 52.633 49.1295 52.6388C49.6411 52.6441 50.1538 52.6346 50.6659 52.6287C51.2429 52.6218 51.8198 52.5915 52.3962 52.608C53.1639 52.6303 53.9119 52.7807 54.6062 53.1223C55.4355 53.5308 56.0629 54.1529 56.4905 54.9726C56.7595 55.4923 56.9274 56.0584 56.9851 56.6407C57.0765 57.495 57.0165 58.3296 56.7455 59.1466C56.4098 60.1592 55.7723 60.9343 54.8867 61.5149C54.2051 61.9617 53.4576 62.2258 52.6565 62.3766C51.8086 62.5365 50.9581 62.485 50.1076 62.4877C49.1747 62.4914 48.2424 62.4712 47.3095 62.4606C47.1464 62.459 47.123 62.4282 47.166 62.2725L47.2059 62.1291C47.2967 61.8433 47.3456 61.8305 47.6357 61.7827C47.8414 61.7508 48.0381 61.676 48.2131 61.5633C48.3109 61.4985 48.3513 61.3295 48.3895 61.1994C48.4224 61.0857 48.424 60.9609 48.4251 60.8408C48.4384 59.0213 48.4522 57.2023 48.4596 55.3838C48.4617 54.9238 48.4502 54.4639 48.4251 54.0047C48.407 53.6833 48.2354 53.4633 47.8529 53.3874C47.5554 53.3284 47.2558 53.2827 46.9567 53.2301L46.8563 53.1988ZM55.3967 57.6044C55.3563 57.2421 55.3367 56.8766 55.2719 56.5196C55.1167 55.6627 54.7417 54.9163 54.0829 54.3314C53.0178 53.3863 51.7353 53.2407 50.3913 53.3534C50.0853 53.3789 50.0194 53.4835 50.0146 53.798C50.0072 54.2443 49.9997 54.6905 49.9992 55.1368C49.9971 56.552 49.9971 57.9673 49.9992 59.3825C49.9992 59.7856 50.0047 60.1879 50.0157 60.5895C50.0284 61.0007 50.1777 61.3487 50.5804 61.508C51.2152 61.7593 51.883 61.7891 52.5492 61.6865C53.6133 61.5234 54.3576 60.9035 54.8569 59.9743C55.2522 59.2369 55.3638 58.4321 55.3967 57.6044ZM57.9834 62.4234C57.9706 62.2029 58.0609 62.0207 58.1725 61.8534C58.2028 61.8082 58.3069 61.8103 58.3786 61.796L58.9874 61.6754C59.2026 61.6297 59.3157 61.4852 59.346 61.2743C59.3662 61.1351 59.3853 60.9943 59.3869 60.8535C59.4013 59.7396 59.4118 58.6255 59.4183 57.5115C59.4236 56.3958 59.4193 55.2802 59.4193 54.1646L59.4145 53.9515C59.3928 53.5929 59.2196 53.407 58.8636 53.3544L58.0917 53.237C57.9966 53.2243 57.9621 53.1786 57.9966 53.0941C58.0561 52.9501 58.113 52.8009 58.1969 52.6712C58.2283 52.6234 58.334 52.6048 58.4052 52.6064C58.7739 52.6117 59.1425 52.6394 59.5112 52.6388L62.7205 52.6197C63.3389 52.6192 63.936 52.727 64.4906 53.0229C65.101 53.348 65.4426 53.8511 65.5404 54.5364C65.6424 55.2563 65.424 55.863 64.8981 56.3448C64.6819 56.5435 64.4019 56.6731 64.1512 56.8346L64.0694 56.8856C64.302 56.9712 64.5236 57.045 64.7393 57.1332C65.3704 57.3919 65.8724 57.7962 66.138 58.4417C66.3479 58.9511 66.3479 59.4824 66.2236 60.0104C66.0302 60.8371 65.4857 61.3869 64.7775 61.8029C64.1129 62.1934 63.3936 62.4207 62.6275 62.459C61.921 62.4946 61.2112 62.4813 60.5031 62.4893L60.0929 62.4914C59.4104 62.4757 58.728 62.4587 58.0455 62.4404L57.9834 62.4234ZM60.9249 59.1886H60.9318C60.9318 59.5382 60.927 59.8877 60.9334 60.2373C60.9376 60.4636 60.9297 60.6963 60.9785 60.9141C61.0519 61.2398 61.2006 61.5335 61.5661 61.627C62.0548 61.755 62.5651 61.7774 63.0632 61.6929C63.6884 61.584 64.1873 61.2706 64.4609 60.675C64.6638 60.2325 64.6941 59.7634 64.6245 59.2842C64.5321 58.6531 64.1968 58.1952 63.6396 57.895C63.2741 57.6979 62.8841 57.5773 62.4687 57.5614C62.0033 57.5439 61.5374 57.5428 61.072 57.5285C60.9413 57.5247 60.9233 57.5911 60.9238 57.6985C60.9265 58.1946 60.9249 58.6914 60.9249 59.1886ZM61.9157 56.8113C62.1701 56.7985 62.4581 56.7948 62.7444 56.7661C63.2927 56.7114 63.6789 56.4357 63.8802 55.9113C63.9828 55.6452 63.9785 55.371 63.9812 55.0943C63.9891 54.3734 63.5684 53.7826 62.8836 53.5382C62.355 53.3496 61.8099 53.3464 61.2617 53.3613C61.0396 53.3672 60.9403 53.4644 60.9371 53.688L60.9042 56.6041C60.9026 56.7199 60.9525 56.7698 61.0651 56.7735L61.9157 56.8113Z" fill="#94795D"/>
<path fill-rule="evenodd" clip-rule="evenodd" d="M6.10098 61.863L6.0622 62.3645C5.70095 62.3645 5.36785 62.3618 5.03476 62.3655C4.40735 62.3719 3.77995 62.382 3.15201 62.391L3.09145 62.3948C3.00166 62.3841 2.83857 62.3841 2.83432 62.3576C2.80776 62.2083 2.81626 62.0516 2.82316 61.897C2.8237 61.8794 2.88479 61.8571 2.92038 61.8486L3.4086 61.7397C3.71301 61.6606 3.82032 61.5294 3.83466 61.2149C3.85113 60.8605 3.8676 60.5056 3.8692 60.1513C3.87398 59.279 3.86866 58.4077 3.87238 57.5354C3.87291 57.3314 3.80226 57.1795 3.61207 57.0966C3.38607 56.9963 3.15849 56.8996 2.92941 56.8065C2.82104 56.763 2.68026 56.7391 2.69301 56.5935C2.70576 56.4453 2.84229 56.4065 2.97085 56.3773C3.50316 56.2556 4.03601 56.1372 4.56673 56.0075C4.73779 55.9656 4.90141 55.8949 5.10595 55.8237C5.11657 55.9342 5.13623 56.0394 5.1341 56.1446L5.10276 56.6445C5.10223 56.7008 5.13145 56.7763 5.17341 56.8076C5.19891 56.8273 5.28445 56.7917 5.32695 56.7587C5.78063 56.4134 6.26088 56.1154 6.8086 55.9417C7.65701 55.6723 8.38535 55.922 8.89535 56.6535C9.07491 56.9112 9.07545 56.9112 9.3246 56.7311C9.75226 56.4203 10.1996 56.1462 10.7 55.9656C11.7986 55.5687 12.8542 56.0724 13.2362 57.1789C13.3754 57.5806 13.4285 57.9955 13.4274 58.4194L13.4174 61.234C13.4168 61.4661 13.4939 61.5984 13.7149 61.6707C13.9629 61.7519 14.2201 61.8077 14.4995 61.881L14.4347 62.365C14.117 62.365 13.8248 62.3629 13.5326 62.3655C12.8186 62.3719 12.1046 62.3756 11.3912 62.3921C11.2669 62.3953 11.2344 62.3645 11.2281 62.2481C11.2074 61.8757 11.2042 61.8763 11.5548 61.7923L11.6727 61.762C12.0154 61.6685 12.1296 61.5634 12.1323 61.2159C12.1402 60.2182 12.1609 59.2179 12.1105 58.2223C12.0579 57.1896 11.2382 56.6397 10.2373 56.9043C9.91428 56.9928 9.61006 57.1394 9.33948 57.3367C9.24651 57.4031 9.22898 57.4796 9.23641 57.596C9.2651 58.0359 9.28157 58.4761 9.28582 58.9167C9.2922 59.6875 9.28263 60.4584 9.28582 61.2297C9.28688 61.5421 9.39366 61.6616 9.70232 61.7339L10.1608 61.8396L10.2458 61.8587C10.2522 62.0054 10.258 62.152 10.2511 62.2986C10.2469 62.3905 10.1757 62.3985 10.096 62.3969C9.65026 62.3857 9.20401 62.3709 8.75829 62.3719C8.21588 62.373 7.67401 62.3884 7.13213 62.3979H7.00463C7.00463 62.2423 6.9972 62.0935 7.00995 61.9453C7.0126 61.9097 7.07529 61.8598 7.11832 61.8486L7.65276 61.7355C7.8796 61.6797 7.98798 61.5634 8.00073 61.3328C8.06129 60.265 8.10485 59.1966 8.00445 58.1294C7.97993 57.9186 7.92144 57.7132 7.83126 57.5211C7.55766 56.9165 6.94195 56.6642 6.23166 56.8459C5.89432 56.9319 5.58991 57.0865 5.30198 57.2815C5.23937 57.3203 5.18794 57.3748 5.15274 57.4395C5.11753 57.5043 5.09976 57.577 5.10116 57.6507C5.10187 58.716 5.10417 59.781 5.10807 60.8456L5.11391 61.2563C5.12029 61.5426 5.24195 61.6935 5.52616 61.7551C5.70891 61.7966 5.89379 61.8247 6.10098 61.863Z" fill="#50382B"/>
<path fill-rule="evenodd" clip-rule="evenodd" d="M38.2193 55.9326C38.3016 56.3332 38.3 56.6933 38.0057 56.9664C37.7135 57.2379 37.3438 57.1465 36.983 57.0859C37.0165 57.2761 37.0537 57.4376 37.0718 57.6013C37.203 58.8173 36.6797 59.7199 35.5519 60.2357C35.1258 60.4302 34.6737 60.5024 34.212 60.5396C33.9825 60.5577 33.7817 60.733 33.7599 60.9216C33.7376 61.1128 33.8577 61.3094 34.0978 61.3668C34.381 61.4342 34.6763 61.4533 34.9669 61.4868C35.5906 61.558 36.2212 61.5904 36.8375 61.702C37.7693 61.8698 38.2894 62.6832 38.1252 63.6193C37.9791 64.4523 37.4968 65.0584 36.8242 65.5232C35.691 66.3084 34.4479 66.5379 33.124 66.1374C32.367 65.9079 31.8331 65.4101 31.6488 64.6047C31.5563 64.2015 31.6546 63.8365 31.9579 63.5629C32.3187 63.2389 32.7113 62.9499 33.089 62.6439L33.2112 62.5212L33.0709 62.4229C32.6858 62.2401 32.3776 61.9899 32.2581 61.5553C32.2172 61.4082 32.2597 61.3115 32.3845 61.2361C32.597 61.1082 32.8083 60.9781 33.0183 60.8456C33.1171 60.784 33.2149 60.7202 33.3068 60.649C33.4322 60.5534 33.421 60.4822 33.2712 60.427C32.9227 60.2984 32.613 60.1119 32.3729 59.8251C31.9718 59.3464 31.8581 58.7764 31.891 58.1745C31.9425 57.2342 32.4531 56.6147 33.2829 56.2163C34.2694 55.7429 35.2591 55.7132 36.2648 56.1446C36.6367 56.3039 37.0287 56.3379 37.4277 56.3103C37.7257 56.2891 37.986 56.1764 38.2193 55.9326ZM34.5839 62.6694C33.8433 62.663 33.6112 62.7544 33.1766 63.1969C32.69 63.6931 32.6927 64.3811 33.1782 64.8794C33.5469 65.2571 34.007 65.434 34.5186 65.4871C35.1162 65.5487 35.7049 65.5238 36.2478 65.2247C36.8269 64.9043 37.1148 64.3093 36.9846 63.7101C36.8768 63.2155 36.5124 62.9892 36.0688 62.859C35.5641 62.7113 35.0424 62.6832 34.5839 62.6694ZM33.1293 57.937C33.1564 58.1426 33.1676 58.3508 33.2133 58.5522C33.3318 59.0739 33.5586 59.5323 34.0776 59.7645C34.687 60.0381 35.4653 59.9207 35.7319 59.0654C35.9143 58.4962 35.893 57.8813 35.6719 57.3261C35.5786 57.072 35.4099 56.8526 35.1885 56.6971C34.6593 56.3278 33.7047 56.279 33.3158 57.095C33.1894 57.3601 33.14 57.6422 33.1293 57.937Z" fill="#4F382B"/>
<path fill-rule="evenodd" clip-rule="evenodd" d="M25.6547 55.8014C25.6743 55.8922 25.7137 55.9953 25.7147 56.0989C25.7163 56.296 25.6951 56.4931 25.6839 56.6902V56.8612L25.8507 56.7337C26.3076 56.3576 26.7985 56.0373 27.3701 55.8646C28.4018 55.5538 29.4324 56.1185 29.7687 57.1693C29.8962 57.5688 29.9467 57.9795 29.9514 58.3971C29.9621 59.3246 29.9684 60.2522 29.978 61.1798C29.9812 61.5129 30.0194 61.5723 30.3345 61.6685C30.5137 61.722 30.6966 61.7627 30.8817 61.7902C30.9831 61.8061 31.0267 61.8459 31.0214 61.9453L31.0224 62.0367C31.0187 62.4208 30.9922 62.4383 30.6198 62.4372C29.7283 62.4356 28.8374 62.4409 27.946 62.4484C27.6803 62.4505 27.6798 62.4585 27.6533 62.196L27.6479 62.0452C27.6644 61.8188 27.6697 61.821 27.8923 61.788C28.0421 61.7657 28.1909 61.7312 28.337 61.6929C28.4873 61.6542 28.5596 61.5431 28.5798 61.3944C28.5898 61.3189 28.6031 61.2435 28.6026 61.1681C28.5898 60.1544 28.6063 59.1398 28.5511 58.1277C28.5064 57.3091 27.8817 56.8214 27.0598 56.8772C26.6637 56.9047 26.2829 57.0413 25.9596 57.2719C25.7402 57.4254 25.6961 57.6469 25.6972 57.8855C25.7021 58.8332 25.7099 59.7812 25.7206 60.7293C25.7227 60.937 25.7285 61.1447 25.7482 61.3508C25.7689 61.5761 25.8481 61.6669 26.0691 61.7158C26.2805 61.7625 26.4962 61.7896 26.722 61.8273L26.7411 62.0016C26.7485 62.408 26.706 62.4383 26.3113 62.4367C25.3896 62.433 24.4679 62.4388 23.5467 62.4489C23.4017 62.451 23.34 62.4054 23.3438 62.264L23.3416 62.2035C23.3177 61.8374 23.3283 61.8236 23.6747 61.7641L23.8383 61.7312C24.2134 61.6467 24.3096 61.5468 24.3149 61.1659C24.3324 59.9595 24.3388 58.7535 24.351 57.5471C24.3526 57.3739 24.2873 57.2395 24.1258 57.1678C23.8991 57.0685 23.6712 56.9721 23.442 56.8788C23.3156 56.8267 23.1711 56.7938 23.1663 56.619C23.1631 56.4957 23.2949 56.3868 23.475 56.3502C23.8368 56.2768 24.2017 56.2158 24.5593 56.126C24.9152 56.0373 25.2648 55.9183 25.6547 55.8014Z" fill="#4F372B"/>
<path fill-rule="evenodd" clip-rule="evenodd" d="M45.5845 58.9527C45.5675 60.0795 45.2748 60.9906 44.4779 61.6743C43.4686 62.5418 41.8939 62.8367 40.6067 62.188C40.0574 61.9112 39.6537 61.4868 39.3907 60.9358C38.9875 60.0885 38.8865 59.1976 39.0969 58.2849C39.3052 57.3823 39.8518 56.7283 40.6699 56.3049C41.5114 55.8698 42.3976 55.6998 43.332 55.9283C44.5141 56.2167 45.3635 57.1804 45.5325 58.4076C45.5627 58.6228 45.5744 58.8406 45.5845 58.9527ZM44.2155 59.5631L44.1698 59.5578C44.1698 59.4515 44.1757 59.3453 44.1687 59.239C44.13 58.5771 43.9812 57.9465 43.5977 57.3924C43.2337 56.8675 42.7381 56.5578 42.0932 56.5127C41.3712 56.4617 40.7645 56.8654 40.5515 57.6028C40.2317 58.7099 40.34 59.7889 40.9021 60.803C41.147 61.245 41.5098 61.5712 41.9959 61.7428C42.9485 62.078 43.7932 61.644 44.0412 60.6686C44.1326 60.3084 44.1592 59.9318 44.2155 59.5631Z" fill="#4F382B"/>
<path fill-rule="evenodd" clip-rule="evenodd" d="M22.1851 59.04C22.1654 59.8486 21.9747 60.5961 21.4753 61.2458C20.9404 61.9417 20.2051 62.3136 19.3689 62.4703C18.3803 62.6552 17.4517 62.4873 16.6574 61.8238C16.2803 61.5082 16.0226 61.1039 15.8526 60.6439C15.5737 59.8895 15.5041 59.1165 15.6757 58.3287C15.859 57.4856 16.335 56.8412 17.0729 56.4087C17.9261 55.9099 18.8467 55.6873 19.8301 55.9115C21.0944 56.2005 21.8244 57.0245 22.0943 58.2718C22.1484 58.5237 22.1559 58.784 22.1851 59.04ZM20.8007 59.5734L20.764 59.5681V59.4162C20.7433 58.6745 20.5983 57.968 20.1557 57.3517C19.8279 56.8943 19.3891 56.6074 18.8265 56.5272C17.9096 56.3965 17.3103 56.9405 17.1117 57.6795C16.8524 58.6448 16.9337 59.5984 17.3348 60.5137C17.585 61.0843 17.9803 61.5289 18.5875 61.7446C19.5342 62.0809 20.3916 61.6357 20.6312 60.6641C20.7194 60.3087 20.7459 59.9378 20.8007 59.5734Z" fill="#4F372B"/>
<path fill-rule="evenodd" clip-rule="evenodd" d="M44.2548 17.8203C44.9066 19.7047 45.3752 21.6283 45.5298 23.6216C45.721 26.0951 45.6339 28.5516 45.1122 30.9842L45.0453 31.1786C44.8817 31.1791 44.7148 31.1584 44.5549 31.1834C43.204 31.3959 41.8546 31.6158 40.5047 31.8347C39.1091 32.061 37.7124 32.2783 36.3195 32.5195C35.826 32.6045 35.215 32.503 35.0158 33.1851L34.9202 33.2175L34.9877 29.1386L34.9191 19.2967L35.5694 19.1851C36.6324 19.0114 37.6954 18.8345 38.7601 18.665C40.0298 18.4637 41.3005 18.2671 42.5713 18.0705C43.1323 17.9845 43.6938 17.9042 44.2548 17.8203Z" fill="#439934"/>
<path fill-rule="evenodd" clip-rule="evenodd" d="M33.5783 45.1089C32.8924 44.5192 32.1827 43.9555 31.5255 43.335C27.9884 39.9988 25.4007 36.0713 24.1263 31.3362C23.7751 30.0336 23.5414 28.7092 23.4659 27.363C23.4128 26.4206 23.3368 25.4702 23.4038 24.5325C23.5807 22.0394 23.9414 19.5701 24.6724 17.1683L24.7128 17.1125C24.7839 17.2071 24.8859 17.291 24.9221 17.3978C25.6357 19.4995 26.3448 21.603 27.0492 23.7085C29.264 30.3231 31.4761 36.9393 33.6946 43.5529C33.7382 43.682 33.8503 43.7877 33.931 43.904L33.5783 45.1089Z" fill="#45A538"/>
<path fill-rule="evenodd" clip-rule="evenodd" d="M44.2548 17.8203C43.6933 17.9037 43.1317 17.9845 42.5713 18.0706C41.3005 18.2671 40.0298 18.4637 38.7601 18.665C37.696 18.834 36.633 19.0109 35.5694 19.1851L34.9191 19.2967L34.9138 18.8727C34.8921 18.5242 34.8559 18.1757 34.8511 17.8272L34.7784 11.1579C34.7614 9.76659 34.7359 8.37524 34.7077 6.98443C34.6934 6.11999 34.6684 5.25576 34.6328 4.39193C34.6116 3.92815 34.5366 3.46649 34.5069 3.00271C34.4894 2.73603 34.5127 2.46721 34.5186 2.19946C34.8501 2.84174 35.1747 3.48881 35.5152 4.12631C36.0534 5.13409 36.9113 5.87678 37.6843 6.68693C40.7369 9.8909 42.9038 13.6139 44.2548 17.8203Z" fill="#46A037"/>
<path fill-rule="evenodd" clip-rule="evenodd" d="M34.9207 33.2174L35.0164 33.185C35.2156 32.5029 35.8265 32.6043 36.32 32.5193C37.713 32.2782 39.1096 32.0609 40.5052 31.8346C41.8551 31.6162 43.2045 31.3963 44.5555 31.1832C44.7154 31.1583 44.8822 31.179 45.0458 31.1785C44.7935 32.0795 44.5948 33.0001 44.2744 33.8761C43.9105 34.8696 43.4707 35.8396 43.0037 36.7906C42.3042 38.2087 41.4387 39.5387 40.4255 40.7526C39.6467 41.6887 38.7787 42.5552 37.909 43.41C37.4277 43.8822 36.8614 44.2674 36.3333 44.6924L36.1963 44.5989L35.7038 44.1781L35.1943 43.0604C34.8465 41.7569 34.6565 40.4163 34.6285 39.0675L34.6381 38.8401L34.7077 37.8552C34.7305 37.5189 34.7614 37.1832 34.7757 36.8469C34.8267 35.6378 34.8724 34.4276 34.9207 33.2174Z" fill="#409433"/>
<path fill-rule="evenodd" clip-rule="evenodd" d="M34.9207 33.2174C34.8729 34.4276 34.8272 35.6383 34.7757 36.8485C34.7614 37.1853 34.7311 37.5211 34.7077 37.8568L34.3975 37.9742C33.7079 35.9443 33.0178 33.9357 32.3431 31.9222C31.227 28.5908 30.1246 25.2545 29.01 21.922C28.11 19.2324 27.2037 16.545 26.2911 13.8597C26.2481 13.7343 26.1259 13.6355 26.0409 13.5245L28.0278 9.87109C28.0963 9.98956 28.1861 10.1006 28.2291 10.2281C29.1482 12.9481 30.0656 15.6686 30.9751 18.3918C32.1588 21.9352 33.3344 25.4803 34.517 29.0243C34.5643 29.1656 34.6418 29.2962 34.7162 29.4551L34.9882 29.1385L34.9207 33.2174Z" fill="#4FAA41"/>
<path fill-rule="evenodd" clip-rule="evenodd" d="M26.0404 13.5247C26.1259 13.6357 26.2481 13.7345 26.2906 13.8599C27.2033 16.5451 28.1096 19.2326 29.0096 21.9221C30.1241 25.2547 31.2265 28.5909 32.3426 31.9224C33.0173 33.9358 33.7074 35.9439 34.397 37.9744L34.7072 37.857L34.6376 38.8419L34.5744 39.0687C34.4666 40.1467 34.3757 41.2267 34.244 42.3025C34.1781 42.8417 34.0373 43.3708 33.9305 43.9042C33.8503 43.7878 33.7377 43.6821 33.6941 43.553C31.4751 36.9395 29.2635 30.3233 27.0487 23.7087C26.3441 21.6037 25.635 19.5001 24.9216 17.398C24.8855 17.2912 24.7835 17.2073 24.7123 17.1127L26.0404 13.5247Z" fill="#4AA73C"/>
<path fill-rule="evenodd" clip-rule="evenodd" d="M34.9877 29.1384L34.7157 29.455C34.6413 29.2962 34.5637 29.1655 34.5164 29.0242C33.3339 25.4802 32.1582 21.9352 30.9746 18.3918C30.064 15.6689 29.1487 12.9477 28.2286 10.228C28.1855 10.1005 28.0958 9.98951 28.0272 9.87104L30.4843 6.63892C30.5618 6.74198 30.6723 6.83388 30.7122 6.95023C31.3939 8.94773 32.0707 10.9468 32.7426 12.9475C33.3705 14.8164 33.9889 16.6875 34.6243 18.5533C34.6668 18.6781 34.815 18.7663 34.9138 18.8725L34.9191 19.2965L34.9877 29.1384Z" fill="#57AE47"/>
<path fill-rule="evenodd" clip-rule="evenodd" d="M34.9138 18.8727C34.8145 18.767 34.6668 18.6788 34.6243 18.5534C33.9894 16.6877 33.3705 14.8166 32.7426 12.9477C32.0706 10.947 31.3937 8.94786 30.7122 6.95039C30.6723 6.83404 30.5618 6.74214 30.4843 6.63908C31.2833 5.85654 32.0573 5.04586 32.8887 4.29945C33.6277 3.63645 34.2216 2.92564 34.2492 1.87748L34.3077 1.6687L34.518 2.19889C34.5127 2.46664 34.4888 2.73545 34.5063 3.00214C34.5366 3.46592 34.6115 3.92758 34.6323 4.39136C34.671 5.25464 34.6896 6.11951 34.7072 6.98386C34.7353 8.37467 34.7608 9.76601 34.7778 11.1574L34.8506 17.8267C34.8559 18.1757 34.8926 18.5242 34.9138 18.8727Z" fill="#60B24F"/>
<path fill-rule="evenodd" clip-rule="evenodd" d="M33.931 43.9037C34.0378 43.3703 34.1786 42.8412 34.2445 42.3019C34.3762 41.2267 34.4671 40.1461 34.5749 39.0682L34.602 39.064L34.6286 39.0687C34.6565 40.4176 34.8465 41.7581 35.1944 43.0616C35.1226 43.1562 35.0222 43.2396 34.984 43.3458C34.6891 44.1778 34.4108 45.0166 34.1143 45.848C34.0739 45.9617 33.9603 46.0504 33.8811 46.1498L33.5778 45.1085L33.931 43.9037Z" fill="#A9AA88"/>
<path fill-rule="evenodd" clip-rule="evenodd" d="M33.8811 46.1502C33.9603 46.0503 34.0739 45.9621 34.1143 45.8484C34.4108 45.017 34.6891 44.1782 34.984 43.3462C35.0217 43.24 35.1226 43.1566 35.1944 43.062L35.7038 44.1798C35.6034 44.3221 35.4642 44.4512 35.4084 44.6101L34.4331 47.4746C34.3927 47.5899 34.2562 47.6706 34.1637 47.7678L33.8811 46.1502Z" fill="#B6B598"/>
<path fill-rule="evenodd" clip-rule="evenodd" d="M34.1637 47.7673C34.2556 47.67 34.3927 47.5893 34.433 47.474L35.4084 44.6095C35.4637 44.4507 35.6034 44.3216 35.7038 44.1792L36.1968 44.5994C35.9588 44.8348 35.8265 45.1068 35.9062 45.4505L35.7564 45.9408C35.6884 46.0248 35.5896 46.0981 35.5561 46.1942C35.2156 47.1696 34.891 48.1503 34.5478 49.1251C34.5042 49.2484 34.3836 49.3456 34.2992 49.455L34.1637 47.7673Z" fill="#C2C1A7"/>
<path fill-rule="evenodd" clip-rule="evenodd" d="M34.2987 49.4547C34.3837 49.3452 34.5043 49.248 34.5473 49.1247C34.8905 48.1499 35.2156 47.1692 35.5556 46.1938C35.5891 46.0977 35.6879 46.0249 35.7559 45.9404L35.5492 48.1908C35.494 48.2546 35.4143 48.3103 35.3877 48.3842L34.7003 50.3541C34.6519 50.4885 34.5595 50.6085 34.4873 50.7344C34.423 50.6505 34.3082 50.5692 34.3029 50.4821C34.2827 50.141 34.2971 49.7973 34.2987 49.4547Z" fill="#CECDB7"/>
<path fill-rule="evenodd" clip-rule="evenodd" d="M34.4878 50.735C34.56 50.6091 34.6525 50.4891 34.7008 50.3547L35.3883 48.3848C35.4148 48.3104 35.495 48.2552 35.5498 48.1914L35.5551 49.6683L35.0605 50.9364L34.4878 50.735Z" fill="#DBDAC7"/>
<path fill-rule="evenodd" clip-rule="evenodd" d="M35.0605 50.9363L35.5551 49.6682L35.6571 51.1685L35.0605 50.9363Z" fill="#EBE9DC"/>
<path fill-rule="evenodd" clip-rule="evenodd" d="M35.9057 45.4507C35.8266 45.1075 35.9583 44.8355 36.1963 44.5996L36.3334 44.6931L35.9057 45.4507Z" fill="#CECDB7"/>
<path fill-rule="evenodd" clip-rule="evenodd" d="M34.6285 39.0692L34.602 39.0644L34.5749 39.0686L34.6381 38.8418L34.6285 39.0692Z" fill="#4FAA41"/>
</svg>
