<svg width="99" height="60" viewBox="0 0 99 60" fill="none" xmlns="http://www.w3.org/2000/svg">
<g clip-path="url(#clip0_147_1028)">
<path d="M48.9478 59.827C48.6166 59.827 48.3074 59.7387 48.0203 59.5841L45.0831 57.8395C44.6413 57.5965 44.8622 57.5082 44.9948 57.464C45.591 57.2653 45.7015 57.221 46.3198 56.8679C46.3861 56.8235 46.4746 56.8457 46.5407 56.8898L48.7934 58.237C48.8817 58.2811 48.9921 58.2811 49.0582 58.237L57.87 53.1354C57.9583 53.0913 58.0026 53.0028 58.0026 52.8926V42.7117C58.0026 42.601 57.9583 42.513 57.87 42.4686L49.0582 37.3893C48.9699 37.3449 48.8595 37.3449 48.7934 37.3893L39.9816 42.4686C39.8933 42.5128 39.849 42.6232 39.849 42.7115V52.8924C39.849 52.9809 39.8933 53.0911 39.9816 53.1354L42.3889 54.5267C43.6918 55.1892 44.5089 54.4163 44.5089 53.6433V43.5949C44.5089 43.4624 44.6194 43.3298 44.7739 43.3298H45.9002C46.0328 43.3298 46.1652 43.4403 46.1652 43.5949V53.6433C46.1652 55.3879 45.2155 56.4039 43.5592 56.4039C43.0513 56.4039 42.6539 56.4039 41.5274 55.8517L39.2087 54.5267C38.6345 54.1956 38.2811 53.577 38.2811 52.9146V42.7337C38.2811 42.0712 38.6345 41.4526 39.2087 41.1215L48.0203 36.02C48.5725 35.7108 49.3234 35.7108 49.8755 36.02L58.6871 41.1215C59.2613 41.4526 59.6148 42.0712 59.6148 42.7337V52.9146C59.6148 53.577 59.2613 54.1956 58.6871 54.5267L49.8755 59.6282C49.5883 59.7609 49.2569 59.827 48.9478 59.827ZM51.6644 52.8263C47.7997 52.8263 47.0046 51.0595 47.0046 49.5578C47.0046 49.4252 47.1151 49.2928 47.2697 49.2928H48.4181C48.5505 49.2928 48.661 49.381 48.661 49.5137C48.8377 50.684 49.3456 51.2582 51.6866 51.2582C53.5416 51.2582 54.3369 50.8386 54.3369 49.8448C54.3369 49.2706 54.1158 48.8512 51.2228 48.564C48.8155 48.3209 47.3138 47.791 47.3138 45.8697C47.3138 44.0808 48.8157 43.0207 51.3332 43.0207C54.1599 43.0207 55.5514 43.9925 55.7281 46.1124C55.7281 46.1788 55.7061 46.2451 55.6618 46.3113C55.6175 46.3554 55.5514 46.3996 55.4851 46.3996H54.3367C54.2262 46.3996 54.1158 46.3113 54.0938 46.2009C53.8288 44.9863 53.1441 44.5887 51.3332 44.5887C49.3015 44.5887 49.0584 45.2955 49.0584 45.8254C49.0584 46.4659 49.3456 46.6646 52.084 47.0179C54.8004 47.3714 56.0815 47.8793 56.0815 49.7785C56.0593 51.722 54.4693 52.8263 51.6644 52.8263Z" fill="#539E43"/>
<path d="M21.6073 20.0087C21.6073 19.6113 21.3864 19.2356 21.0331 19.0369L11.6692 13.6483C11.5145 13.5599 11.3379 13.5157 11.1613 13.4936H11.0729C10.8963 13.4936 10.7196 13.5599 10.565 13.6483L1.20114 19.0369C0.847639 19.2356 0.626938 19.6111 0.626938 20.0087L0.649103 34.496C0.649103 34.6948 0.759549 34.8935 0.93611 34.982C1.11286 35.0924 1.33356 35.0924 1.48834 34.982L7.05363 31.8018C7.40694 31.603 7.62783 31.2276 7.62783 30.8301V24.0501C7.62783 23.6527 7.84853 23.2772 8.20203 23.0785L10.565 21.7092C10.7417 21.5987 10.9404 21.5544 11.1392 21.5544C11.3379 21.5544 11.5366 21.5987 11.6914 21.7092L14.0543 23.0785C14.4078 23.2772 14.6285 23.6525 14.6285 24.0501V30.8301C14.6285 31.2276 14.8494 31.603 15.2027 31.8018L20.768 34.982C20.854 35.0361 20.9535 35.0648 21.0551 35.0648C21.1567 35.0648 21.2562 35.0361 21.3422 34.982C21.519 34.8935 21.6294 34.6948 21.6294 34.496L21.6073 20.0087ZM66.6155 0.0663535C66.4389 -0.0221178 66.218 -0.0221178 66.0632 0.0663535C65.8867 0.176799 65.7762 0.35336 65.7762 0.552086V14.9072C65.7762 15.0396 65.7101 15.172 65.5775 15.2605C65.445 15.3266 65.3125 15.3266 65.1801 15.2605L62.8391 13.9134C62.6675 13.8157 62.4734 13.7643 62.2759 13.7643C62.0784 13.7643 61.8843 13.8157 61.7127 13.9134L52.3489 19.3241C51.9955 19.5228 51.7746 19.8983 51.7746 20.2957V31.095C51.7746 31.4924 51.9955 31.8681 52.3489 32.0668L61.7127 37.4775C61.8843 37.5752 62.0784 37.6265 62.2759 37.6265C62.4734 37.6265 62.6675 37.5752 62.8391 37.4775L72.2029 32.0668C72.5562 31.8681 72.7771 31.4926 72.7771 31.095V4.17406C72.7771 3.75444 72.5562 3.37916 72.2029 3.18024L66.6155 0.0663535ZM65.7543 27.5395C65.7543 27.6499 65.7101 27.7382 65.6217 27.7823L62.4195 29.6374C62.3748 29.6592 62.3257 29.6706 62.2759 29.6706C62.2261 29.6706 62.177 29.6592 62.1323 29.6374L58.9301 27.7823C58.8417 27.7382 58.7975 27.6278 58.7975 27.5395V23.8292C58.7975 23.7188 58.8417 23.6305 58.9301 23.5864L62.1323 21.7311C62.177 21.7093 62.2261 21.6979 62.2759 21.6979C62.3257 21.6979 62.3748 21.7093 62.4195 21.7311L65.6217 23.5864C65.7101 23.6303 65.7543 23.7409 65.7543 23.8292V27.5395ZM97.7767 23.7409C98.1302 23.5422 98.3289 23.1667 98.3289 22.7691V20.1411C98.3289 19.7437 98.108 19.3682 97.7767 19.1695L88.4792 13.7809C88.3075 13.6833 88.1134 13.6319 87.916 13.6319C87.7185 13.6319 87.5244 13.6833 87.3527 13.7809L77.9889 19.1915C77.6354 19.3902 77.4147 19.7657 77.4147 20.1631V30.9625C77.4147 31.36 77.6356 31.7355 77.9889 31.9342L87.2864 37.2344C87.6399 37.4332 88.0596 37.4332 88.3909 37.2344L94.0223 34.0988C94.199 34.0103 94.3095 33.8116 94.3095 33.6129C94.3095 33.4141 94.199 33.2154 94.0223 33.1269L84.6143 27.7162C84.4376 27.6058 84.3271 27.4292 84.3271 27.2305V23.8516C84.3271 23.6529 84.4376 23.4541 84.6143 23.3657L87.5515 21.6872C87.6374 21.6331 87.737 21.6043 87.8386 21.6043C87.9402 21.6043 88.0397 21.6331 88.1257 21.6872L91.063 23.3657C91.2397 23.4761 91.35 23.6527 91.35 23.8516V26.5017C91.35 26.7004 91.4604 26.8992 91.6372 26.9874C91.7232 27.0416 91.8227 27.0703 91.9243 27.0703C92.0259 27.0703 92.1254 27.0416 92.2114 26.9874L97.7767 23.7409Z" fill="#333333"/>
<path d="M87.7723 23.2328C87.8051 23.2112 87.8435 23.1997 87.8828 23.1997C87.9221 23.1997 87.9605 23.2112 87.9932 23.2328L89.7822 24.2708C89.8483 24.3151 89.8924 24.3813 89.8924 24.4695V26.5456C89.8924 26.6339 89.8485 26.7002 89.7822 26.7444L87.9932 27.7823C87.9605 27.8039 87.9221 27.8155 87.8828 27.8155C87.8435 27.8155 87.8051 27.8039 87.7723 27.7823L85.9836 26.7444C85.9173 26.7002 85.8732 26.6339 85.8732 26.5456V24.4697C85.8732 24.3813 85.9171 24.3149 85.9836 24.271L87.7723 23.2328Z" fill="#539E43"/>
<path d="M37.2652 13.825C37.0935 13.7274 36.8995 13.676 36.702 13.676C36.5046 13.676 36.3105 13.7274 36.1389 13.825L26.8414 19.1912C26.4879 19.3899 26.2892 19.7654 26.2892 20.1628V30.9181C26.2892 31.3156 26.5101 31.691 26.8414 31.8898L36.1389 37.2563C36.3105 37.354 36.5046 37.4053 36.702 37.4053C36.8995 37.4053 37.0935 37.354 37.2652 37.2563L46.5629 31.8898C46.9162 31.691 47.1151 31.3156 47.1151 30.9181V20.163C47.1151 19.7656 46.894 19.3901 46.5629 19.1914L37.2652 13.825Z" fill="url(#paint0_linear_147_1028)"/>
<mask id="mask0_147_1028" style="mask-type:luminance" maskUnits="userSpaceOnUse" x="26" y="13" width="22" height="25">
<path d="M37.2652 13.825C37.0935 13.7274 36.8995 13.676 36.702 13.676C36.5046 13.676 36.3105 13.7274 36.1389 13.825L26.8414 19.1912C26.4879 19.3899 26.2892 19.7654 26.2892 20.1628V30.9181C26.2892 31.3156 26.5101 31.691 26.8414 31.8898L36.1389 37.2563C36.3105 37.354 36.5046 37.4053 36.702 37.4053C36.8995 37.4053 37.0935 37.354 37.2652 37.2563L46.5629 31.8898C46.9162 31.691 47.1151 31.3156 47.1151 30.9181V20.163C47.1151 19.7656 46.894 19.3901 46.5629 19.1914L37.2652 13.825Z" fill="white"/>
</mask>
<g mask="url(#mask0_147_1028)">
<path d="M46.5848 19.1914L37.2432 13.825C37.1514 13.7787 37.0552 13.7417 36.956 13.7146L26.4879 31.6473C26.5746 31.7532 26.6794 31.8429 26.7972 31.9124L36.1389 37.2789C36.4039 37.4335 36.7131 37.4777 37.0001 37.3892L46.8279 19.4125C46.7616 19.3242 46.6731 19.2575 46.5848 19.1914Z" fill="url(#paint1_linear_147_1028)"/>
</g>
<mask id="mask1_147_1028" style="mask-type:luminance" maskUnits="userSpaceOnUse" x="26" y="13" width="22" height="25">
<path d="M37.2652 13.825C37.0935 13.7274 36.8995 13.676 36.702 13.676C36.5046 13.676 36.3105 13.7274 36.1389 13.825L26.8414 19.1912C26.4879 19.3899 26.2892 19.7654 26.2892 20.1628V30.9181C26.2892 31.3156 26.5101 31.691 26.8414 31.8898L36.1389 37.2563C36.3105 37.354 36.5046 37.4053 36.702 37.4053C36.8995 37.4053 37.0935 37.354 37.2652 37.2563L46.5629 31.8898C46.9162 31.691 47.1151 31.3156 47.1151 30.9181V20.163C47.1151 19.7656 46.894 19.3901 46.5629 19.1914L37.2652 13.825Z" fill="white"/>
</mask>
<g mask="url(#mask1_147_1028)">
<path fill-rule="evenodd" clip-rule="evenodd" d="M46.607 31.89C46.872 31.7355 47.0708 31.4704 47.1592 31.1834L36.9116 13.6925C36.6466 13.6483 36.3594 13.6703 36.1167 13.8249L26.8412 19.1695L36.8453 37.4112C36.9909 37.3875 37.1322 37.3429 37.265 37.2788L46.607 31.89Z" fill="url(#paint2_linear_147_1028)"/>
<path fill-rule="evenodd" clip-rule="evenodd" d="M46.607 31.8899L37.2873 37.2565C37.1557 37.3235 37.0139 37.3682 36.8677 37.3889L37.0444 37.7202L47.3799 31.7355V31.6029L47.1149 31.1611C47.0707 31.4703 46.872 31.7353 46.607 31.8899Z" fill="url(#paint3_linear_147_1028)"/>
<path fill-rule="evenodd" clip-rule="evenodd" d="M46.607 31.8899L37.2873 37.2565C37.1557 37.3235 37.0139 37.3682 36.8677 37.3889L37.0444 37.7202L47.3799 31.7355V31.6029L47.1149 31.1611C47.0707 31.4703 46.872 31.7353 46.607 31.8899Z" fill="url(#paint4_linear_147_1028)"/>
</g>
</g>
<defs>
<linearGradient id="paint0_linear_147_1028" x1="1446.37" y1="428.63" x2="427.28" y2="2029.93" gradientUnits="userSpaceOnUse">
<stop stop-color="#41873F"/>
<stop offset="0.3288" stop-color="#418B3D"/>
<stop offset="0.6352" stop-color="#419637"/>
<stop offset="0.9319" stop-color="#3FA92D"/>
<stop offset="1" stop-color="#3FAE2A"/>
</linearGradient>
<linearGradient id="paint1_linear_147_1028" x1="906.742" y1="1322.31" x2="3459.02" y2="-64.3577" gradientUnits="userSpaceOnUse">
<stop offset="0.1376" stop-color="#41873F"/>
<stop offset="0.4032" stop-color="#54A044"/>
<stop offset="0.7136" stop-color="#66B848"/>
<stop offset="0.9081" stop-color="#6CC04A"/>
</linearGradient>
<linearGradient id="paint2_linear_147_1028" x1="-62.3346" y1="1200.54" x2="2089.1" y2="1200.54" gradientUnits="userSpaceOnUse">
<stop offset="0.09192" stop-color="#6CC04A"/>
<stop offset="0.2864" stop-color="#66B848"/>
<stop offset="0.5968" stop-color="#54A044"/>
<stop offset="0.8624" stop-color="#41873F"/>
</linearGradient>
<linearGradient id="paint3_linear_147_1028" x1="-1054.94" y1="360.92" x2="1096.47" y2="360.92" gradientUnits="userSpaceOnUse">
<stop offset="0.09192" stop-color="#6CC04A"/>
<stop offset="0.2864" stop-color="#66B848"/>
<stop offset="0.5968" stop-color="#54A044"/>
<stop offset="0.8624" stop-color="#41873F"/>
</linearGradient>
<linearGradient id="paint4_linear_147_1028" x1="1409.9" y1="-1353.26" x2="864.865" y2="1502.71" gradientUnits="userSpaceOnUse">
<stop stop-color="#41873F"/>
<stop offset="0.3288" stop-color="#418B3D"/>
<stop offset="0.6352" stop-color="#419637"/>
<stop offset="0.9319" stop-color="#3FA92D"/>
<stop offset="1" stop-color="#3FAE2A"/>
</linearGradient>
<clipPath id="clip0_147_1028">
<rect width="97.8344" height="60" fill="white" transform="translate(0.582794)"/>
</clipPath>
</defs>
</svg>
