<svg width="59" height="60" viewBox="0 0 59 60" fill="none" xmlns="http://www.w3.org/2000/svg">
<path d="M29.5 34.5615C32.0457 34.5615 34.1094 32.4978 34.1094 29.9521C34.1094 27.4065 32.0457 25.3428 29.5 25.3428C26.9543 25.3428 24.8906 27.4065 24.8906 29.9521C24.8906 32.4978 26.9543 34.5615 29.5 34.5615Z" fill="#00D8FF"/>
<path d="M29.5 40.5204C23.9598 40.6539 18.4335 39.9072 13.1275 38.3079C10.6765 37.5309 8.39042 36.3069 6.38491 34.6978C5.61936 34.1484 4.98186 33.4397 4.51623 32.6205C4.0506 31.8012 3.76788 30.8909 3.6875 29.952C3.6875 26.9043 7.03575 23.9174 12.6444 21.9631C18.0926 20.2327 23.7843 19.3935 29.5 19.4777C35.1394 19.3997 40.7551 20.2238 46.1343 21.9188C48.4945 22.6722 50.7029 23.8369 52.6575 25.3592C53.4089 25.8841 54.0361 26.5674 54.4948 27.3609C54.9535 28.1545 55.2326 29.0389 55.3125 29.952C55.3125 33.1196 51.5697 36.3296 45.5406 38.3245C40.3374 39.8721 34.9277 40.6127 29.5 40.5204ZM29.5 21.6828C24.0318 21.6113 18.5869 22.4092 13.369 24.0465C8.20653 25.8478 5.89263 28.3111 5.89263 29.9465C5.89263 31.6575 8.37984 34.3475 13.841 36.2152C18.9169 37.7382 24.2022 38.447 29.5 38.3153C34.6927 38.4081 39.8691 37.7055 44.8492 36.2318C50.5188 34.3531 53.1 31.6593 53.1 29.952C53.0067 29.3662 52.793 28.8061 52.4725 28.307C52.152 27.8078 51.7316 27.3805 51.2378 27.0518C49.4894 25.7008 47.5165 24.6685 45.4097 24.0022C40.2636 22.3878 34.8928 21.6049 29.5 21.6828Z" fill="#00D8FF"/>
<path d="M19.0275 52.9418C18.1674 52.9615 17.3175 52.7528 16.5643 52.3371C13.924 50.8142 13.0095 46.4224 14.1176 40.5869C15.3408 35.0028 17.4576 29.6528 20.3864 24.7435C23.1355 19.8195 26.6542 15.3666 30.8091 11.5534C32.6408 9.88496 34.753 8.55356 37.0483 7.62063C37.879 7.2326 38.7847 7.03149 39.7015 7.03149C40.6183 7.03149 41.524 7.2326 42.3546 7.62063C45.1 9.20257 46.009 14.0479 44.7276 20.2669C43.4682 25.5485 41.4063 30.6057 38.6137 35.2621C35.9615 40.1282 32.5536 44.5424 28.5173 48.3399C26.6197 50.0744 24.4174 51.4428 22.0218 52.3758C21.0629 52.7327 20.0504 52.9241 19.0275 52.9418ZM22.2965 25.8387C19.503 30.5398 17.4742 35.6548 16.2859 40.9925C15.2663 46.367 16.2453 49.5991 17.6687 50.4214C19.1437 51.2751 22.7242 50.4657 27.0718 46.6676C30.9255 43.0299 34.1783 38.8045 36.7091 34.1485C39.3842 29.6968 41.3621 24.8618 42.574 19.8115C43.7799 13.9576 42.7381 10.3734 41.2595 9.52154C40.7052 9.30952 40.113 9.21464 39.5202 9.24288C38.9274 9.27112 38.3469 9.42188 37.8153 9.68563C35.772 10.5291 33.8933 11.7262 32.2656 13.2219C28.2963 16.8748 24.9353 21.1377 22.3094 25.8498L22.2965 25.8387Z" fill="#00D8FF"/>
<path d="M39.967 52.9657C37.4687 52.9657 34.2956 51.4538 30.9916 48.6126C26.7644 44.7642 23.1863 40.2585 20.3956 35.2693C17.5029 30.428 15.4028 25.1553 14.1747 19.6509C13.6434 17.229 13.5448 14.7322 13.8834 12.2759C13.9631 11.365 14.241 10.4826 14.6977 9.69049C15.1544 8.89838 15.7789 8.21577 16.5274 7.69053C19.269 6.10306 23.9208 7.73477 28.6685 11.9496C32.6152 15.678 35.9667 19.9896 38.6063 24.7342C41.4974 29.4624 43.6195 34.6196 44.8935 40.0133C45.4487 42.524 45.5343 45.1157 45.1461 47.6575C45.0541 48.595 44.7602 49.5014 44.2847 50.3146C43.8092 51.1278 43.1634 51.8284 42.3915 52.3683C41.6503 52.7781 40.8137 52.9842 39.967 52.9657ZM22.3038 34.1594C24.9812 38.9272 28.3991 43.2394 32.4297 46.9347C36.5763 50.5024 39.8656 51.2694 41.2797 50.4379C42.7547 49.5805 43.8425 46.0811 42.7215 40.4189C41.4937 35.2691 39.4582 30.3462 36.6906 25.833C34.1717 21.2921 30.9727 17.1635 27.2045 13.5905C22.7353 9.62278 19.1105 8.73593 17.6336 9.59143C17.1736 9.96572 16.796 10.4312 16.5247 10.9586C16.2534 11.486 16.0942 12.0638 16.0572 12.6557C15.7643 14.8463 15.8598 17.0713 16.3393 19.2287C17.5209 24.4925 19.535 29.5341 22.3057 34.1631L22.3038 34.1594Z" fill="#00D8FF"/>
</svg>
